# xmcd
#
# Track frame offsets: 
#        150
#        20354
#        44194
#        68836
#        82442
#        94716
#        109372
#        127730
#        148484
#        172996
#        194163
#        216122
#        232996
#        263402
#
# Disc length: 3722 seconds
#
# Revision: 0
# Processed by: cddbd v1.5.2PL0 Copyright (c) Steve Scherf et al.
# Submitted via: ExactAudioCopy v1.0b6
#
DISCID=d20e880e
DTITLE=El Conde de Saint Germain - EL CONDE DE SAINT GERMAIN
DYEAR=2008
DGENRE=Blues
TTITLE0=Artista desconocido - El omnibus
TTITLE1=Artista desconocido - Blues del maquinista
TTITLE2=Artista desconocido - Pink Floyd
TTITLE3=Artista desconocido - Malas ideas
TTITLE4=Artista desconocido - Convicciones
TTITLE5=Artista desconocido - Blues de octubre
TTITLE6=Artista desconocido - Breve esperpento
TTITLE7=Artista desconocido - A y Q
TTITLE8=Artista desconocido - Contrareloj
TTITLE9=Artista desconocido - Torre del Vigia
TTITLE10=Artista desconocido - Solo
TTITLE11=Artista desconocido - Homber 10
TTITLE12=Artista desconocido - Tan solo un blues
TTITLE13=Artista desconocido - Quedarán
EXTD=
EXTT0=
EXTT1=
EXTT2=
EXTT3=
EXTT4=
EXTT5=
EXTT6=
EXTT7=
EXTT8=
EXTT9=
EXTT10=
EXTT11=
EXTT12=
EXTT13=
PLAYORDER=
